Coordinates
version=1
nRows=27
nColumns=12
inDegrees=yes

Units are S.I. units (second, meters, Newtons, ...)
Angles are in degrees

endheader
time	SC_y	SC_z	SC_x	AC_y	AC_z	AC_x	GH_y	GH_z	GH_yy	EL_x	PS_y
       0.0              -39.13          32.56          58.75          58.46          7.414          4.305         -68.22          40.33          134.3          28.99          83.26
   0.04975              -39.13          32.55          58.75          58.46          7.412          4.306         -68.19          40.32          134.3           29.0          83.26
   0.09949              -39.13          32.55          58.75          58.46           7.41          4.307         -68.17          40.32          134.2          29.02          83.26
    0.1492              -39.13          32.55          58.75          58.46          7.407          4.309         -68.14          40.31          134.2          29.03          83.26
     0.199              -39.13          32.54          58.75          58.46          7.405          4.311         -68.11          40.31          134.2          29.05          83.25
    0.2487              -39.14          32.53          58.75          58.46          7.402          4.313         -68.07           40.3          134.2          29.07          83.25
    0.2985              -39.14          32.53          58.75          58.46          7.399          4.314         -68.04           40.3          134.1          29.08          83.25
    0.3482              -39.14          32.52          58.75          58.46          7.396          4.316          -68.0          40.29          134.1           29.1          83.24
     0.398              -39.14          32.52          58.75          58.46          7.393          4.319         -67.96          40.29          134.0          29.12          83.24
    0.4477              -39.14          32.51          58.75          58.46          7.389          4.321         -67.92          40.28          134.0          29.15          83.24
    0.4975              -39.14           32.5          58.75          58.46          7.385          4.324         -67.87          40.27          133.9          29.17          83.23
    0.5472              -39.14          32.49          58.75          58.46          7.381          4.326         -67.82          40.27          133.9           29.2          83.23
     0.597              -39.14          32.48          58.75          58.46          7.376          4.329         -67.77          40.26          133.8          29.23          83.22
    0.6467              -39.14          32.47          58.74          58.46          7.371          4.332         -67.71          40.25          133.8          29.26          83.22
    0.6964              -39.14          32.46          58.74          58.46          7.366          4.336         -67.64          40.24          133.7          29.29          83.21
    0.7462              -39.14          32.45          58.74          58.46           7.36          4.339         -67.58          40.23          133.6          29.33           83.2
    0.7959              -39.15          32.44          58.74          58.46          7.354          4.343          -67.5          40.22          133.5          29.36           83.2
    0.8457              -39.15          32.43          58.74          58.46          7.347          4.348         -67.42           40.2          133.5          29.41          83.19
    0.8954              -39.15          32.41          58.74          58.46           7.34          4.353         -67.33          40.19          133.4          29.45          83.18
    0.9452              -39.15           32.4          58.74          58.46          7.332          4.358         -67.24          40.17          133.3           29.5          83.17
    0.9949              -39.15          32.38          58.74          58.46          7.323          4.364         -67.13          40.16          133.2          29.56          83.16
     1.045              -39.15          32.36          58.74          58.46          7.313           4.37         -67.01          40.14          133.0          29.62          83.15
     1.094              -39.16          32.34          58.74          58.46          7.302          4.377         -66.89          40.12          132.9          29.69          83.14
     1.144              -39.16          32.31          58.73          58.46           7.29          4.385         -66.74           40.1          132.7          29.76          83.13
     1.194              -39.16          32.29          58.73          58.47          7.277          4.393         -66.58          40.07          132.6          29.85          83.11
     1.244              -39.17          32.26          58.73          58.47          7.262          4.403         -66.41          40.05          132.4          29.94          83.09
     1.293              -39.17          32.23          58.73          58.47          7.246          4.414         -66.21          40.01          132.2          30.05          83.08
